<svg xmlns="http://www.w3.org/2000/svg" width="687" height="792" viewBox="0 0 687 792">
  <defs>
    <style>
      .cls-1, .cls-2 {
      fill-rule: evenodd;
      }

      .cls-2 {
      fill: #4b4eff;
      }
    </style>
  </defs>
  <path id="IDF_Stroke_1" data-name="IDF Stroke 1" class="cls-1"
    d="M444.366,112.72c0.519,11,.79,20.775-3.993,28.944-2.379,4.063-9.9,10.194-8.986,13.973,1.814,6.346,7.433,11.067,9.984,16.967,1.188,2.747.341,5.75,2,7.984,1.2,1.623,2.424,1.493,4.991,2,4.3-2.776,12.4-.061,15.974,1,10.725,3.181,36.355,18.976,45.925,16.967,3.9-.818,6.545-5.654,9.984-6.987,3.728-1.444,6.405.845,8.985,0,3.164-1.036,6.273-6.748,11.981-5.988,8.293,1.1,13.256,7.412,18.968,10.979,6.783,4.235,14.459,5.635,21.965,8.982,4.269,1.9,8.544,6.173,12.978,7.985l18.969,2.994c8.6,3.584,17.681,9.661,25.958,13.973,16.457,8.574,34.2,14.762,46.923,26.948,0.56,12.75-5.67,20.412-12.979,27.946-26.158,1.968-52.723-22.045-74.877-27.946-5.666-1.509-9.049,4.169-14.976,2.994l-10.982-3.992c-10.528,1.6-15.864,13-26.956,15.969-12.418,3.33-28.874,2.545-39.934-1-3.92-1.256-11.257-5.112-16.973-3.992-21.316,4.177-55.83,10.5-78.87,2v2c-2.78,3.962-5.585,11.633-6.989,15.969,15.61,1.006,28.439,8.927,39.935,13.973,32.57,14.3,43.175,24.067,62.9,50.9l14.975,12.974c5.713,7.953,11.7,29.273,7.987,44.914-6,25.287-17.184,25.767-28.952,41.919-7.35,10.086-12.586,21.03-19.968,30.94l-12.979,11.977c-6.3,8.765-2.837,26.725-8.985,35.93-4.878,7.3-13.643,6.952-20.965,11.977-8.79,8.777-12.828,35.747-3.994,47.907,3.691,3.821,9.531,9.259,14.975,10.979,7.212,2.278,13.549,1.3,18.969,4.99l6.989,8.983c0.989,11.372,2.616,27.294-3.993,33.935-15.065,15.136-65.585,4.434-82.865-3-8.614-3.7-12.409-15.677-20.965-16.967-5.91,3.767-16.011-1.991-19.968-3.992-10.616-5.369-42.7-22.026-32.946-41.919,0.74-1.51,4.023-3.461,4.992-4.99,3.84-6.06,5.828-12.38,9.984-17.966,3.962-5.325,12.09-8.739,14.975-14.971,2.031-4.386,6.688-14.017,4.992-19.961-1.982-6.947-9.11-14.966-4.992-25.95,2.336-6.228,9.113-10.814,10.982-16.967q0.5-6.487,1-12.975c3.29-11.756,7.032-25.191,12.978-34.933,5.757-9.431,16.189-18.528,19.968-28.944,0.25-.966.782-0.378,0-1l-31.948-6.986c-7.622,11.607-24.5,16.451-30.949,28.944-2.669,5.172-1.429,10.577-3,16.967-2.773,11.31-2.272,26.354-4.992,38.925l-1,26.948c-5.717,24.87-15.183,38.888-27.954,55.892-8.473,11.281-23.269,22.03-36.939,27.946-10.747,4.65-21.866,6.718-30.95,12.974-10.929,7.528-15.293,23.225-25.957,30.941-3.734,2.7-8.167,3.3-11.981,5.988-4.6,3.239-8.671,10.759-14.975,13.973l-12.979,2.994c-9.93,5.445-22.119,22.565-28.952,31.939-2.576,3.533-9.251,7.24-10.982,10.978l-1,10.979c-0.92,2.324-3,3.071-3.993,5.989,7.19,8.913,21.617,49.244,9.983,60.882-4.07,4.072-10.469,4.184-16.972,5.988-4.469,1.24-13.173,3.713-19.967,2C65.1,786.9,48.57,769.328,42.025,753.481c-3.941-9.542-2.67-21.7-7.987-29.942-6.271-9.724-19.368-14.811-25.957-24.952-5.042-7.759-12.314-27.54-4.992-37.927,4.745-14.388,26.553-23.235,41.931-26.948,7.048-1.7,12.495,3.4,16.972,1,5.3-1.8,9.19-7.424,12.979-10.978-0.72-33.085,9.6-38.5,32.946-49.9,1.115-25.044,22.756-37.5,37.938-48.9,9.383-7.051,17.22-17.134,26.956-23.954,5.651-3.959,18.3-5.183,20.965-11.977,1.684-2.616,1.651-11.638,1-15.969q-2.5-17.964-4.992-35.931c-4.332-16.726-8.636-32.969-12.979-48.9q-0.5-6.487-1-12.975c-1.392-5.911-4.413-19-3-25.95,2.092-10.262,8.11-16.276,8.985-25.95-13.793-12.761-28.712-26.873-43.928-37.926-17.558-12.755-36.362-24.359-48.92-41.919-7.765-10.858-10.314-27.966-3.993-42.917,3.157-7.469,11.688-17.657,18.969-20.96,9.745-4.42,24.2-6.979,27.954-16.967,2.653-3.662,1.518-8.737,3-13.973,1.9-6.72,4.483-15.183,7.987-20.959,15.292-25.207,30.23-48.34,49.918-68.867,29.972-2.511,56.423,14.235,77.873,24.952,4.143,2.07,24.868,11.847,27.954,9.981h1v-1c-7.593-5.869-13.983-30.092-6.988-40.921,5.115-7.92,17.266-14.389,24.959-19.961,19.009-13.77,41.164-39.032,78.871-29.942,33.968,8.189,43.16,22.265,60.9,45.911,4.215,5.619,11.643,9.386,14.975,15.969C481.33,81.614,460.49,111.515,444.366,112.72Z" />
  <path id="CT_Final_2" data-name="CT Final 2" class="cls-2"
    d="M380.773,13c13.344,0.333,15.682,1.334,26.022,4,17.119,4.935,30.3,24.112,40.035,37.007,4.141,5.486,16.213,13.554,15.013,23-0.573,4.51-12.441,19.427-16.014,22-4.574,3.3-7.581-.607-11.01,2-2.7-.821-6.7,9.906-3,17,1.92,10.224-5.643,25.634-20.017,34.006,9.284,11.953,8.678,10.76,15.013,21,3.859,6.241,4.609,17.32,12.01,20,4.734,2.923,17.468-.358,24.02,2,14.654,5.274,33.992,22.149,54.046,16,3.383-1.036,5.589-4.991,8.007-6l6,1c3.013-.964,5.973-4.751,9.008-6,4.63,0.92,6.215,3.414,10.008,6,6.211,4.235,15.528,8.146,22.019,11,7.944,3.5,15.689,8.6,23.02,11,5.535,1.815,9.765-.231,14.012,2,10.638,5.591,58.421,29.415,66.056,34.006-1.979,4.221-4.584,10.049-7.006,12-18.986-7.312-60.081-25.36-69.059-30.006-4.14-2.142-9.314,5.135-16.013,3-4.176-1.33-6.831-4.933-12.01-6-2.593,4.26-4.921,6.946-12.011,7-4.407,5.207-9.771,9.129-12.01,11-37.511,6.984-35.918-3.5-58.05-4-19.837,6.049-50.722,7.454-75.063,3-6.615-2.442-5.6-7.624-15.013-8-4.53,8.221.915,11.938-2,21-2.753,8.554-9.582,11.735-10.009,23,14.114,6.314,28.281,7.633,38.033,12,51.3,22.984,45.977,25.927,54.046,32.006,7.519,5.665,12.335,14.374,18.015,22,5.121,6.879,13.688,9.966,17.015,19,2.407,6.54,3.1,29.272,1,36.007-3.868,12.427-16.013,18.569-23.02,28-10.316,13.892-17.238,28.636-30.025,40.007a35.611,35.611,0,0,0-11.01,19c-2.662,11.119.643,22.351-9.008,26.005-2.548,2.222-9.364,3.209-13.011,4-3.65,6.217-7.558,10.5-9.007,18-4.209,9.644-4.466,12.36-6,21-0.488,2.734,2.472,5.4,3,7,3.451,10.454.407,17.314,8.007,23,3.091,2.315,11.8,9.9,14.012,11,7.445,3.729,19.462,1.388,23.02,9v18c-1.5,1.552-.778,1.838-3,3-14.924,10.6-65.811-5.27-70.06-8-6.495-4.176-9.5-15.7-18.015-17-1.789,1.215-10.652,2.121-14.012,1-8.765-2.924-32.76-16.2-33.029-27,5.031-5.364,7.681-12.98,12.011-19,4.786-6.658,14.862-13.43,18.015-21,0-3.423,6.736-13.57,7.006-27-3.42-4.17-6.67-10.138-7.006-17,1.823-2.345,2.259-5.5,4-8,2.024-2.909,6.428-5.782,8.006-9-0.014-.044-1.987-10.29,6.006-33.006,2.724-7.742,8.5-17.73,13.011-25,4.538-7.31,24.3-30.2,25.021-37.007,3.781,1.315-12.475.06-22.019-3-6-.334-13.012-2.667-19.016-3l-16.014-5c-2.62,3.345-12.56,12.443-16.013,15-8.051,5.967-21.076,16.97-24.021,26-4.826,14.805-8.007,49.185-8.007,50.009-0.005,16.634-1.215,44.61-8.006,56.01-8.844,14.842-26.857,39.05-42.036,47.008-16.367,8.58-31.263,11.067-45.039,22-8.92,7.082-14.913,18.939-23.019,27.005-4.134,4.111-11.266,5.533-15.013,10-3.27,3.9-4.976,6.105-10.009,9-4.271,2.459-7.525,3.079-13.011,3l-14.012,13a265.821,265.821,0,0,0-24.02,28c-2.355,3.124-6.969,5.571-9.008,9-1.691,2.845.581,7.456-1,11-0.974,2.183-5.1,4.194-6.005,7,0.375,4.489,7.06,18.863,10.008,26,3.237,7.841,10.688,27.7,3,31.006-2.913,2.23-22.3,5.488-26.022,3-10.94-3.51-26.628-20.951-30.026-32-2.3-7.49-4.917-22.379-9.008-29.006-3.465-5.611-12.965-12.719-18.015-17-4.536-3.847-15.856-19.353-13.011-30,0.2-.747-3.2-12.589,33.028-24,7.054-2.223,12.256,3.715,18.015,2,5.6-1.666,23.835-17.82,25.021-24-2.961-4.216-2.815-18.031,0-22,4.586-11.856,23.578-13.067,30.026-23,2.983-4.6.446-13.12,4-18,2.578-3.539,17.41-16.037,21.018-20,13.408-10.126,25.322-22.46,39.033-32.006,4.8-3.339,10.905-3.658,16.014-7,4.807-3.146,11.54-8.189,7.006-38.007,0-9.657-6-34.617-6-41.007-1.354-3.486-5.536-18.544-10.009-35.006-1.811-11.358-4.837-29.8-4-43.008,2.9-11.753,18.451-18.585,0-37.006-4.028-4.021-28.326-21.893-43.037-35.007-10.922-4.908-49.548-38.46-50.042-51.009-0.08-14.818,8.041-29.52,19.017-33.006,11.289-3.585,16.35-8.2,25.021-14,10.927-7.307,7.782-23.725,14.012-36.006,12.655-24.945,28.524-50.541,47.04-70.013,22.621-.3,38.745,11.044,54.046,19-6.122-3.185,45.156,21.522,51.044,17,5.466-4.195,12.025-8.207,18.015-8,1.022-.8-9.234-9.607-14.012-16-4.884-11.658-5.96-21.967-2-25C308.77,53.126,344.793,22.33,359.755,16,363.991,14.213,374.04,13.467,380.773,13Z" />
</svg>